<?xml version="1.0" standalone="no"?>
<!DOCTYPE svg PUBLIC "-//W3C//DTD SVG 20010904//EN"
        "http://www.w3.org/TR/2001/REC-SVG-20010904/DTD/svg10.dtd">
<svg version="1.0" xmlns="http://www.w3.org/2000/svg"
     width="800.000000pt" height="600.000000pt" viewBox="0 0 800.000000 600.000000"
     preserveAspectRatio="xMidYMid meet">
    <metadata>
        Created by potrace 1.15, written by Peter Selinger 2001-2017
    </metadata>
    <g transform="translate(0.000000,600.000000) scale(0.100000,-0.100000)"
       fill="#ec4d37" stroke="none">
        <path d="M3740 4664 c-217 -31 -540 -129 -812 -245 -343 -146 -918 -464 -992
-547 -48 -54 -53 -37 301 -1032 l328 -925 50 -49 c48 -48 73 -59 685 -314 591
-247 639 -265 695 -265 56 0 104 18 695 264 612 256 637 267 685 315 l50 49
329 925 c353 995 348 977 300 1032 -48 54 -392 257 -682 402 -420 210 -814
346 -1131 390 -135 19 -370 19 -501 0z m-659 -875 c304 -245 653 -508 729
-548 57 -30 61 -31 197 -31 l138 0 64 38 c89 52 427 308 734 554 141 114 257
206 257 203 0 -2 -125 -179 -277 -392 -153 -213 -282 -394 -287 -402 -15 -27
33 25 344 374 167 187 309 347 316 355 8 8 -15 -42 -50 -110 -116 -224 -226
-498 -226 -562 0 -19 4 -20 51 -15 29 4 50 5 48 3 -2 -2 -42 -32 -89 -67 -104
-76 -178 -149 -213 -209 -25 -44 -37 -107 -83 -448 -5 -37 -8 -41 -27 -37 -81
19 -362 3 -416 -24 -57 -30 -128 -106 -145 -159 -31 -90 -18 -165 50 -283 57
-98 61 -122 32 -179 -37 -72 -65 -81 -240 -78 -141 3 -148 4 -173 28 -34 32
-55 72 -55 105 0 15 24 73 54 129 64 123 75 179 51 262 -11 39 -30 70 -62 105
-65 70 -110 89 -229 94 -55 3 -110 7 -124 10 -14 3 -58 1 -99 -3 -50 -6 -74
-5 -76 2 -1 6 -15 103 -30 216 -22 165 -32 214 -52 251 -31 59 -136 161 -237
233 l-79 57 58 -7 57 -7 -7 34 c-21 105 -96 292 -206 510 -38 77 -67 139 -65
139 2 0 151 -164 331 -365 179 -201 328 -365 330 -365 3 0 -126 183 -286 407
-160 224 -282 400 -271 392 11 -7 130 -102 263 -210z m427 -1345 c22 -4 44
-23 77 -66 49 -63 113 -102 189 -115 l38 -6 -6 -46 c-13 -98 -103 -231 -157
-231 -34 0 -145 78 -213 150 -45 48 -77 95 -105 152 -56 120 -58 132 -18 152
33 16 137 21 195 10z m1182 -9 c41 -21 39 -46 -17 -156 -35 -72 -63 -110 -118
-165 -71 -71 -164 -134 -197 -134 -29 0 -95 67 -123 124 -14 29 -28 75 -31
102 l-6 50 55 13 c74 16 135 57 177 119 39 56 44 58 158 61 48 0 83 -4 102
-14z"/>
        <path d="M3938 1925 c-41 -23 -46 -54 -14 -82 45 -39 155 -25 164 20 5 24 -42
40 -101 34 -63 -6 -46 13 18 21 31 3 42 8 33 13 -20 13 -70 10 -100 -6z"/>
    </g>
</svg>
